HIERARCHY
ROOT Hips
{
	OFFSET -3.958830 18.904000 13.208200
	CHANNELS 6 Xposition Yposition Zposition Zrotation Yrotation Xrotation 
	JOINT LHipJoint
	{
		OFFSET 0.000000 0.000000 0.000000
		CHANNELS 3 Zrotation Yrotation Xrotation
		JOINT LeftUpLeg
		{
			OFFSET 1.800000 -1.400000 0.085000
			CHANNELS 3 Zrotation Yrotation Xrotation
			JOINT LeftLeg
			{
				OFFSET 2.215000 -6.000000 0.000000
				CHANNELS 3 Zrotation Yrotation Xrotation
				JOINT LeftFoot
				{
					OFFSET 2.500000 -6.900000 0.000000
					CHANNELS 3 Zrotation Yrotation Xrotation
					JOINT LeftToeBase
					{
						OFFSET 0.200000 -0.500000 1.950000
						CHANNELS 3 Zrotation Yrotation Xrotation
						End Site
						{
							OFFSET 0.000000 0.000000 0.000000
						}
					}
				}
			}
		}
	}
	JOINT RHipJoint
	{
		OFFSET 0.000000 0.000000 0.000000
		CHANNELS 3 Zrotation Yrotation Xrotation
		JOINT RightUpLeg
		{
			OFFSET -1.800000 -1.400000 0.085000
			CHANNELS 3 Zrotation Yrotation Xrotation
			JOINT RightLeg
			{
				OFFSET -2.215000 -6.000000 0.000000
				CHANNELS 3 Zrotation Yrotation Xrotation
				JOINT RightFoot
				{
					OFFSET -2.500000 -6.900000 0.000000
					CHANNELS 3 Zrotation Yrotation Xrotation
					JOINT RightToeBase
					{
						OFFSET -0.200000 -0.500000 1.950000
						CHANNELS 3 Zrotation Yrotation Xrotation
						End Site
						{
							OFFSET 0.000000 0.000000 0.000000
						}
					}
				}
			}
		}
	}
	JOINT LowerBack
	{
		OFFSET 0.000000 0.000000 0.000000
		CHANNELS 3 Zrotation Yrotation Xrotation
		JOINT Spine
		{
			OFFSET -0.087000 1.940000 -0.288900
			CHANNELS 3 Zrotation Yrotation Xrotation
			JOINT Spine1
			{
				OFFSET 0.000000 1.950000 0.060000
				CHANNELS 3 Zrotation Yrotation Xrotation
				JOINT Neck
				{
					OFFSET 0.000000 0.000000 0.000000
					CHANNELS 3 Zrotation Yrotation Xrotation
					JOINT Neck1
					{
						OFFSET 0.000000 1.600000 0.340000
						CHANNELS 3 Zrotation Yrotation Xrotation
						JOINT Head
						{
							OFFSET 0.000000 1.667000 -0.240000
							CHANNELS 3 Zrotation Yrotation Xrotation
							End Site
							{
								OFFSET 0.000000 0.000000 0.000000
							}
						}
					}
				}
				JOINT LeftShoulder
				{
					OFFSET 0.000000 0.000000 0.000000
					CHANNELS 3 Zrotation Yrotation Xrotation
					JOINT LeftArm
					{
						OFFSET 2.700000 1.550000 -0.730000
						CHANNELS 3 Zrotation Yrotation Xrotation
						JOINT LeftForeArm
						{
							OFFSET 5.450000 0.000000 0.000000
							CHANNELS 3 Zrotation Yrotation Xrotation
							JOINT LeftHand
							{
								OFFSET 3.450000 0.000000 0.000000
								CHANNELS 3 Zrotation Yrotation Xrotation
								JOINT LeftHandIndex1
								{
									OFFSET 0.750000 0.000000 0.000000
									CHANNELS 3 Zrotation Yrotation Xrotation
									End Site
									{
										OFFSET 0.000000 0.000000 0.000000
									}
								}
							}
						}
					}
				}
				JOINT RightShoulder
				{
					OFFSET 0.000000 0.000000 0.000000
					CHANNELS 3 Zrotation Yrotation Xrotation
					JOINT RightArm
					{
						OFFSET -2.700000 1.550000 -0.730000
						CHANNELS 3 Zrotation Yrotation Xrotation
						JOINT RightForeArm
						{
							OFFSET -5.450000 0.000000 0.000000
							CHANNELS 3 Zrotation Yrotation Xrotation
							JOINT RightHand
							{
								OFFSET -3.450000 0.000000 0.000000
								CHANNELS 3 Zrotation Yrotation Xrotation
								JOINT RightHandIndex1
								{
									OFFSET -0.750000 0.000000 0.000000
									CHANNELS 3 Zrotation Yrotation Xrotation
									End Site
									{
										OFFSET 0.000000 0.000000 0.000000
									}
								}
							}
						}
					}
				}
			}
		}
	}
}
MOTION
Frames: 6
Frame Time: 0.016667
0.308030 17.440780 -1.709280 -12.296873 -17.365296 -3.207216 -15.238823 12.446080 1.427970 10.528599 -0.134321 -10.874109 -5.823546 9.882796 29.180577 -0.240458 6.057320 2.347958 0.593470 0.404710 0.542000 18.692980 -6.971074 7.452622 -16.207944 25.692948 -69.417505 19.425184 -38.780181 91.902472 -4.204673 -18.455461 -0.968294 0.162420 -0.152590 0.193040 -4.149941 -3.366267 -9.299972 25.242293 -9.866248 43.260839 -6.821300 -0.519141 -1.872035 3.965278 -5.452751 -7.360538 -12.518372 4.192120 42.976170 -7.938040 1.953420 -26.254860 -29.473192 -7.147089 0.482250 -24.279185 4.972296 -9.324106 -29.728578 -42.003858 7.957795 -3.282191 3.123795 0.830060 -0.239040 0.369220 0.097640 20.700402 12.545471 3.896653 44.380316 9.346047 -6.546419 17.360983 20.973891 1.165384 2.265354 -1.097397 -0.095640 0.271420 -0.087050 -0.246150 
0.365910 17.253290 -1.752700 -11.982744 -19.677501 -2.877489 -15.309906 12.431416 1.480388 10.055595 0.096683 -12.795291 -6.070732 11.104479 32.532958 -0.119956 6.601452 2.143942 0.577860 0.390390 0.534030 18.647820 -6.700339 7.600765 -18.940030 26.806577 -71.845402 19.745515 -41.065980 94.797059 -4.406468 -19.216000 -1.094497 0.151130 -0.162820 0.172230 -4.024940 -3.659959 -9.423106 25.052782 -9.216482 45.113092 -7.119143 0.245630 -3.167310 4.328704 -6.140680 -7.848304 -13.911870 4.752453 43.223866 -8.347980 1.573210 -26.258460 -33.515000 -8.828833 0.650230 -22.876894 6.656184 -9.479725 -22.424621 -38.007495 4.732791 -3.194010 3.114975 0.827440 -0.258700 0.368320 0.092710 23.907049 15.490641 4.829043 42.831594 9.513669 -6.135736 12.604545 19.038808 0.514259 2.277274 -1.056927 -0.098330 0.277990 -0.087100 -0.239230 
0.409050 17.069300 -1.777560 -11.761315 -21.194956 -2.770319 -15.379781 12.315687 1.579040 9.942839 0.240266 -15.362739 -6.343475 12.982099 37.511518 0.081821 7.542135 1.795922 0.568320 0.376390 0.510270 18.628072 -6.365776 7.765333 -22.062198 27.452230 -75.566016 18.998926 -42.956911 98.087578 -4.587294 -19.962679 -1.219051 0.136680 -0.162690 0.169030 -3.954210 -3.902438 -9.570318 25.388200 -8.983139 45.817484 -7.301786 0.514504 -3.508387 4.631352 -7.432159 -8.766634 -16.697744 6.090068 43.734243 -8.270120 1.037270 -25.756910 -37.040762 -10.558495 1.048189 -22.235064 8.255848 -9.454085 -14.559157 -33.680129 1.997508 -3.114335 3.131748 0.818240 -0.273600 0.360380 0.091710 26.802064 18.646028 5.994083 41.333334 9.775504 -5.650519 7.518848 16.936480 -0.002301 2.287374 -1.039264 -0.085280 0.272580 -0.075900 -0.222840 
0.444890 16.877350 -1.744610 -11.773743 -21.773087 -2.427456 -15.396025 12.076355 1.689952 10.178669 0.235454 -17.373230 -6.843068 14.911091 41.899775 0.283512 8.516876 1.460269 0.572530 0.372220 0.503390 18.662706 -6.131005 7.882558 -25.132012 27.129404 -78.956047 19.372363 -45.267552 99.718613 -4.731714 -20.576863 -1.314559 0.142270 -0.149860 0.159610 -4.052388 -3.834001 -9.666985 26.913622 -9.455668 44.250596 -7.919603 0.233408 -3.351924 4.706321 -8.496495 -9.063349 -19.128038 7.374222 43.871499 -8.042320 0.636120 -24.756720 -39.553565 -11.038006 1.148018 -22.418729 7.999357 -8.067102 -7.013952 -25.963546 0.032872 -3.133302 3.056874 0.800460 -0.272450 0.339210 0.096140 29.036883 19.558797 6.235093 40.655824 10.164412 -5.154848 4.287326 15.239648 -0.272145 2.303865 -1.039927 -0.085170 0.280530 -0.072150 -0.213890 
0.459010 16.733290 -1.703370 -11.465466 -21.502965 -2.744794 -15.375113 11.921161 1.773924 10.352981 0.272082 -18.327783 -7.015479 16.202150 44.914824 0.461688 9.157872 1.233255 0.592800 0.409960 0.501680 18.702093 -6.091597 7.870710 -25.743992 27.207391 -79.473967 18.919411 -45.993980 100.917951 -4.805909 -20.839476 -1.356222 0.150130 -0.171010 0.162590 -4.176942 -3.647067 -9.695508 28.189784 -9.902725 42.133072 -8.649712 -0.063851 -2.273997 5.000209 -9.014771 -9.827556 -20.913123 8.343218 45.237758 -8.288230 0.300860 -23.776630 -40.058104 -11.834694 1.703062 -24.117439 7.299218 -6.449279 -0.656896 -18.368190 -0.890223 -3.207578 2.937982 0.776450 -0.283590 0.352650 0.101040 28.973173 20.506939 6.506234 42.025254 10.125975 -5.586732 1.902076 15.952532 -0.559460 2.308893 -1.068715 -0.048280 0.264470 -0.084930 -0.193780 
0.461220 16.642350 -1.649280 -11.052185 -19.720064 -4.411457 -15.334274 11.870051 1.825539 10.333021 -0.059373 -18.295352 -6.255509 16.757597 48.128161 0.618431 9.676367 1.066137 0.636930 0.476910 0.511900 18.728306 -6.163126 7.747404 -25.991582 25.843514 -77.021575 21.087308 -47.746497 99.314722 -4.852201 -20.806227 -1.331581 0.172180 -0.191760 0.153530 -4.266594 -3.536719 -9.651418 29.108084 -11.112806 40.470386 -9.540447 -1.162668 -1.188456 5.239411 -9.177990 -10.611194 -22.313144 9.943035 47.604391 -7.288000 0.239650 -23.422340 -39.523036 -12.740201 2.523329 -25.115424 7.112506 -4.765708 2.052843 -11.456527 -1.003025 -3.253121 2.824911 0.780050 -0.312650 0.387220 0.126350 28.102989 20.997503 6.502297 44.252739 10.119342 -6.752816 0.314273 18.773749 -0.949658 2.288935 -1.086622 -0.019150 0.276380 -0.118120 -0.170670 
